<svg xmlns="http://www.w3.org/2000/svg" version="1.1" viewBox="-5.0 -10.0 110.0 135.0">
 <path d="m47.973 2.5c-0.67188-0.003906-1.3477 0.007812-2.0195 0.03125-2.4805 0.17188-4.9062 0.34375-7.3594 0.78125-11.332 2.0195-24.555 9.4766-24.266 22.566 0.78516 0.94922 1.5156 1.9336 2.2812 2.8945l20.664 26.016c0.82812 1.0391 1.625 2.1445 2.5234 3.125-0.003906-1.1719 0.24219-2.5586 0.80859-3.5977-0.81641-1.1445-1.7383-2.2109-2.6094-3.3086l-18.715-23.598c-0.57031-0.71484-1.2461-1.4141-1.7422-2.1797 4.6875-3.6719 11.309-4.0703 16.219-0.63672 1.6602 1.1602 1.7266 3.8125 2.2812 5.8594l5.0508 18.629c0.28125 1 0.60938 2.0078 0.81641 3.0312 0.77734-0.77344 1.5742-1.3359 2.4922-1.9258-0.51563-1.6641-0.87109-3.3906-1.3359-5.0742l-4.0664-15.113c-0.44531-1.625-0.86719-3.2539-1.3398-4.8711 1.4961-1.3477 5.7969-3.1875 7.8242-2.8945 3.6523-0.95703 8.7812 0.90625 11.766 2.8945-0.25 0.89062-0.44922 1.8047-0.67188 2.7031l-4.9102 20.438c-0.12109 0.50781-0.21094 1.0273-0.34766 1.5312 0.94531 0.31641 1.8086 0.75 2.5664 1.4062l6.3438-25.797c4.2695-3.7461 10.773-4.1094 15.633-1.3711 0.60938 0.34375 1.1875 0.74219 1.7969 1.0898-1.7578 2.4805-3.707 4.8359-5.5664 7.2422l-13.762 17.809c-0.84375 1.082-1.7148 2.1602-2.5273 3.2656 0.6875 1.1484 1.0391 2.2461 1.2617 3.5547 0.60156-1.0859 1.4883-2.0898 2.2383-3.0742l21.562-28.047-0.007812-0.003906c0.27344-10.992-9.5117-18.309-19.051-21.305-4.5195-1.418-9.1289-2.0547-13.832-2.0703zm22.02 47.297c-0.14453-0.011719-0.28516-0.007813-0.42578 0.011719-0.80078 0.10156-1.6094 0.48047-2.1133 1.1367-0.75 0.97656-2.2461 6.457-2.6836 7.9531-0.65625 0.28906-7.9961 3.5156-8.3086 3.457l-0.13281-0.17578-0.09375-0.007813c-0.39844 0.46875-0.74609 1.2031-1.1992 1.7617-2.2383 2.7539-7.7109 3.707-10.641 1.5273 0.058594 0.68359 0.28516 1.3242 0.36719 2-1.7266 2.4961-3.3828 5.0312-5.0859 7.5469-0.65625 0.96875-1.8711 2.4531-2.3164 3.4648-0.71484 1.6172 1.8867 5.0508 2.6953 6.4531l1.5977 2.7812c0.28125 0.49219 0.54688 1.0117 0.87109 1.4766 1.7852 2.5859 5.9648 0.5625 5.2266-2.4688-0.20312-0.82812-3.75-6.8711-4.4922-7.8516 1.0898-1.4023 1.918-2.9922 2.9844-4.4062 0.375 0.91797 0.53125 1.957 0.86719 2.9062 1.6133 4.5352 6.5391 10.492 11.367 9.2734 1.1523 0.38281 2.3906 0.62109 3.5625 0.95312l4.1797 1.1719c0.67578 0.19141 1.3555 0.41016 2.043 0.57031 0.95312 0.96484 2.457 2.6445 3.2812 3.75 1.3398 1.4922 3.1055 4.3203 5.1016 4.418 2.1211 0.10156 3.9844-2.2734 2.8633-4.2539-0.75-1.3242-5.2188-6.3281-6.4609-7.6055-1.5703-1.6211-5.0117-1.8984-7.1641-2.7812 2.1016-0.6875 5.1289-2.3125 7.1445-3.3086 1.4258 1.0156 3.0117 1.8516 4.5039 2.7656l2.3008 1.4102c0.64453 0.39453 1.2891 0.83984 2.0039 1.1094 2.7422 1.0312 5.918-2.8906 2.0352-5.4219-2.6055-1.6953-5.2422-3.3477-7.8867-4.9844-2.793-1.7305-2.8828-1.0508-5.6719 0.29687-1.6523 0.79688-3.8555 1.8906-5.543 2.5352-2-3.9453-3.375-7.0664-5.1953-10.984 1.8125-0.8125 3.7383-1.4297 5.6055-2.1133 3.7188-1.3594 3.207-1.2656 4.7812-4.8125 0.82812-1.8633 3.3125-5.9609 2.4453-7.8867-0.39453-0.87891-1.418-1.5938-2.418-1.668zm-20.969 1.3125c-0.34766 0-0.70703 0.035156-1.0781 0.10547-3.3242-0.14844-6.2188 3.2188-6.3594 6.375-0.18359 4.1758 3.2773 7.4414 7.4336 7.1875 9.4844-0.60156 7.0742-13.699 0-13.664z"/>
<text x="0.0" y="117.5" font-size="5.0" font-weight="bold" font-family="Arbeit Regular, Helvetica, Arial-Unicode, Arial, Sans-serif" fill="#000000">Created by Toni Olm</text><text x="0.0" y="122.5" font-size="5.0" font-weight="bold" font-family="Arbeit Regular, Helvetica, Arial-Unicode, Arial, Sans-serif" fill="#000000">from Noun Project</text></svg>