<svg xmlns="http://www.w3.org/2000/svg" version="1.1" viewBox="-5.0 -10.0 110.0 135.0">
 <g>
  <path d="m15 96.5h70c0.82812 0 1.5-0.67188 1.5-1.5v-5c0-0.82812-0.67188-1.5-1.5-1.5h-3.5v-3.5c0-0.82812-0.67188-1.5-1.5-1.5h-3.5v-67h3.5c0.82812 0 1.5-0.67188 1.5-1.5v-3.5h3.5c0.82812 0 1.5-0.67188 1.5-1.5v-5c0-0.82812-0.67188-1.5-1.5-1.5h-70c-0.82812 0-1.5 0.67188-1.5 1.5v5c0 0.82812 0.67188 1.5 1.5 1.5h3.5v3.5c0 0.82812 0.67188 1.5 1.5 1.5h3.5v67h-3.5c-0.82812 0-1.5 0.67188-1.5 1.5v3.5h-3.5c-0.82812 0-1.5 0.67188-1.5 1.5v5c0 0.82812 0.67188 1.5 1.5 1.5zm1.5-88v-2h67v2zm5 5v-2h57v2zm52 3v67h-47v-67zm-52 70h57v2h-57zm-5 5h67v2h-67z"/>
  <path d="m34.051 38.449c-1.0312 1.2188-1.5195 2.7695-1.3789 4.3711 0.14062 1.5898 0.87891 3.0391 2.1094 4.0703 1.0898 0.92188 2.4414 1.4102 3.8516 1.4102 0.17188 0 0.35156 0 0.51953-0.019531 0.19922-0.019531 0.39844-0.050781 0.60156-0.078125l-0.89844 4.5898-4.8789 3.0391c-0.35156 0.21875-0.60156 0.57812-0.67969 0.98047-0.078125 0.41016 0.011719 0.82812 0.25 1.1719l1.8906 2.6211c0.28906 0.39844 0.75 0.62109 1.2188 0.62109 0.21875 0 0.44922-0.050781 0.66016-0.14844l7.2695-3.5586c0.39062-0.19141 0.67969-0.55078 0.78906-0.96875l0.67969-2.6094 1.3984 1.5703 2.8086 7.3789c0.21094 0.53906 0.71094 0.92188 1.2891 0.96094l14.859 1.0586h0.10938c0.62109 0 1.1914-0.39062 1.4102-0.98047l1.1914-3.2188c0.14844-0.41016 0.12109-0.87109-0.10156-1.2617-0.21875-0.37891-0.58984-0.64844-1.0312-0.73828l-10.578-2.0117-0.039062-0.53125 4.8711-1.2188c0.30859-0.078125 0.57812-0.25 0.78906-0.48828l7.4219-8.8516c0.51172-0.60938 0.46094-1.5117-0.12109-2.0508l-2.3906-2.2617c-0.57812-0.53906-1.4805-0.55078-2.0508 0l-5.7188 5.3281-4.8398 1.0117-5.2695-7.4609-1-6.8711c-0.03125-0.21094-0.10938-0.41016-0.21875-0.58984l-4.2695-6.6992c-0.42188-0.66016-1.2695-0.87891-1.9609-0.51953l-2.4883 1.3086c-0.69141 0.35937-0.98828 1.1914-0.67969 1.9102l2.7383 6.5195-0.30859 2.0703c-1.1094-0.71094-2.3984-1.0508-3.7383-0.92969-1.5898 0.14062-3.0391 0.87891-4.0703 2.1094zm27.129 11c0.26953-0.058594 0.51172-0.17969 0.71094-0.37109l4.9883-4.6484 0.33984 0.32031-6.1992 7.3984-3.9297 0.98047-0.23828-2.7812 4.3203-0.91016zm-18.41-20.672 3.3516 5.2617 1 6.8984c0.03125 0.23047 0.12109 0.46094 0.26172 0.64844l6.5 9.1992 0.62109 7.2812c0.058594 0.67188 0.55078 1.2188 1.2109 1.3516l9.9492 1.8906-0.19141 0.5-12.781-0.91016-2.5703-6.7383c-0.058594-0.17188-0.16016-0.32812-0.28125-0.46094l-6.6914-7.4883s0.03125-0.03125 0.039062-0.039063c1.0312-1.2188 1.5195-2.7695 1.3789-4.3711-0.03125-0.41016-0.10938-0.80078-0.21875-1.1914 0.019532-0.078125 0.050782-0.14844 0.058594-0.23047l0.76953-5.1484c0.039063-0.26953 0-0.55078-0.10156-0.80078l-2.3711-5.6289 0.050781-0.019531zm-0.32031 21.141 1.1719 1.3203-1.0117 3.8789-5.5117 2.6992-0.21094-0.28906 4.0781-2.5391c0.35156-0.21875 0.60156-0.57812 0.67969-0.98047l0.80078-4.0781zm-6.1094-9.5312c0.51172-0.60938 1.2305-0.98047 2.0312-1.0508 0.089844 0 0.17188-0.011719 0.26172-0.011719 0.69922 0 1.3789 0.23828 1.9219 0.69922 0.60937 0.51172 0.98047 1.2305 1.0508 2.0312 0.070312 0.78906-0.17969 1.5703-0.69141 2.1797-0.51172 0.60938-1.2305 0.98047-2.0312 1.0508-1.6406 0.14062-3.0898-1.0781-3.2305-2.7188-0.070313-0.78906 0.17969-1.5703 0.69141-2.1797z"/>
  <path d="m60.969 37.77c-0.57812 0.58984-0.57812 1.5391 0 2.1211 0.28906 0.28906 0.67188 0.44141 1.0586 0.44141 0.39062 0 0.76953-0.14844 1.0703-0.44141 4.4688-4.5117 2.9688-8.6992 0.89844-12.211-1.5586-2.6484 1.2891-6.0195 1.3398-6.0781 0.53906-0.62109 0.48047-1.5703-0.14844-2.1094-0.62109-0.53906-1.5703-0.48047-2.1211 0.14844-0.17969 0.19922-4.3203 5.0508-1.6602 9.5703 1.9492 3.3086 2.4492 5.6484-0.44922 8.5781z"/>
  <path d="m37.711 67.762c0.53906-0.62109 0.46875-1.5703-0.14844-2.1094-0.62891-0.53906-1.5703-0.48047-2.1211 0.14844-1.3281 1.5195-3.0117 5.1914 0.089844 8.1719 1.75 1.6914-0.44141 4.1484-0.69141 4.4297-0.57031 0.60156-0.53906 1.5508 0.058594 2.1211 0.28906 0.26953 0.66016 0.41016 1.0312 0.41016 0.39844 0 0.80078-0.16016 1.0898-0.46875 1.5703-1.6719 3.7188-5.6289 0.58984-8.6484-1.75-1.6797-0.23047-3.6602 0.10156-4.0508z"/>
  <path d="m65.5 72.828c-0.67188-0.51953-0.69141-0.89062-0.69922-1.0195-0.03125-0.62891 0.57812-1.3594 0.80078-1.5703 0.60156-0.55859 0.64063-1.5 0.078126-2.1094-0.55859-0.60938-1.5117-0.64844-2.1211-0.089844-0.19141 0.17188-1.8594 1.7695-1.7695 3.8984 0.039063 0.87109 0.39063 2.1406 1.8711 3.2695 0.53906 0.42188 0.55078 0.71875 0.55078 0.82812 0.019531 0.71875-0.83984 1.6992-1.25 2.0586-0.62891 0.53906-0.71094 1.4805-0.17188 2.1094 0.30078 0.35156 0.71875 0.53125 1.1484 0.53125 0.33984 0 0.69141-0.12109 0.96875-0.35938 0.23828-0.21094 2.3711-2.0703 2.3086-4.4102-0.019532-0.83984-0.32812-2.0703-1.7188-3.1406z"/>
  <path d="m51.5 72.391c-0.64062-0.57031-0.64062-1.0117-0.55078-1.3594 0.10156-0.39844 0.37109-0.76172 0.46094-0.87109 0.55859-0.60156 0.53125-1.5391-0.070312-2.1094-0.60156-0.57031-1.5508-0.53906-2.1211 0.058594-0.14062 0.14844-1.3789 1.5312-1.3008 3.3984 0.03125 0.80859 0.33984 2 1.5781 3.1211 0.73047 0.64844 0.71875 1.1016 0.71094 1.25-0.019531 0.71094-0.75 1.4609-0.98828 1.6602-0.64844 0.51172-0.76172 1.4609-0.25 2.1094 0.30078 0.37891 0.73047 0.57031 1.1797 0.57031 0.32812 0 0.64844-0.10938 0.92969-0.32031 0.21094-0.17188 2.0586-1.6914 2.1289-3.9219 0.03125-0.91016-0.25-2.2695-1.7109-3.5781z"/>
  <path d="m31.449 32.801c-0.53906 0.62891-0.46875 1.5703 0.14844 2.1211 0.28125 0.25 0.62891 0.37109 0.98047 0.37109 0.42188 0 0.83984-0.17969 1.1289-0.51953 1.4102-1.6211 3.3086-5.6992 0.41016-9.4883-1.6406-2.1484-0.19141-4.5391-0.10938-4.6602 0.44141-0.69922 0.23828-1.6211-0.44922-2.0703-0.69141-0.44922-1.6211-0.25-2.0703 0.44922-0.10938 0.17188-2.6797 4.25 0.26172 8.1016 2.0898 2.7383-0.050781 5.4219-0.28906 5.7109z"/>
  <path d="m51.82 25.32c0.46875 0.39844 0.69922 0.78125 0.69141 1.1211-0.011719 0.58984-0.66016 1.2891-0.96875 1.5312-0.66016 0.5-0.78906 1.4414-0.28906 2.1016 0.28906 0.39062 0.73828 0.58984 1.1992 0.58984 0.32031 0 0.62891-0.10156 0.89844-0.30078 0.21094-0.16016 2.0898-1.6406 2.1602-3.8203 0.03125-0.89062-0.25-2.2305-1.7305-3.5-0.53906-0.46094-0.55859-0.78906-0.55859-0.89844-0.03125-0.46094 0.33984-0.96875 0.48047-1.1094 0.57031-0.58984 0.55859-1.5312-0.03125-2.1094s-1.5391-0.57031-2.1211 0.019531c-0.14062 0.14844-1.3984 1.4805-1.3281 3.3203 0.03125 0.78906 0.33984 1.9688 1.6094 3.0508z"/>
 </g>
<text x="0.0" y="117.5" font-size="5.0" font-weight="bold" font-family="Arbeit Regular, Helvetica, Arial-Unicode, Arial, Sans-serif" fill="#000000">Created by Lars Meiertoberens</text><text x="0.0" y="122.5" font-size="5.0" font-weight="bold" font-family="Arbeit Regular, Helvetica, Arial-Unicode, Arial, Sans-serif" fill="#000000">from Noun Project</text></svg>